<svg width="101" height="100" viewBox="0 0 101 100" fill="none" xmlns="http://www.w3.org/2000/svg">
<path fill-rule="evenodd" clip-rule="evenodd" d="M50.4998 0C22.9092 0 0.541504 22.3677 0.541504 49.9583C0.541504 77.549 22.9092 99.9167 50.4998 99.9167C78.0905 99.9167 100.458 77.549 100.458 49.9583C100.458 22.3677 78.0905 0 50.4998 0ZM72.1545 41.5108C72.5532 41.055 72.8568 40.5241 73.0473 39.9493C73.2379 39.3744 73.3115 38.7673 73.2639 38.1636C73.2163 37.5598 73.0485 36.9717 72.7702 36.4338C72.492 35.8959 72.109 35.4191 71.6438 35.0314C71.1786 34.6437 70.6405 34.353 70.0612 34.1763C69.482 33.9997 68.8733 33.9406 68.2709 34.0027C67.6684 34.0647 67.0845 34.2466 66.5535 34.5377C66.0224 34.8288 65.5549 35.2231 65.1785 35.6975L45.6493 59.128L35.5441 49.0182C34.6876 48.1909 33.5403 47.7331 32.3495 47.7435C31.1587 47.7538 30.0196 48.2315 29.1775 49.0735C28.3355 49.9156 27.8578 51.0547 27.8475 52.2455C27.8371 53.4363 28.2949 54.5836 29.1222 55.4401L42.7472 69.0651C43.1935 69.5111 43.7277 69.8592 44.316 70.0873C44.9042 70.3153 45.5335 70.4183 46.1638 70.3897C46.794 70.3611 47.4114 70.2014 47.9765 69.921C48.5417 69.6405 49.0422 69.2454 49.4462 68.7608L72.1545 41.5108Z" fill="#1AFA4B"/>
</svg>
