<svg width="1000" height="100" xmlns="http://www.w3.org/2000/svg" xmlns:xlink="http://www.w3.org/1999/xlink">
<defs>
<linearGradient x1="100%" y1="100%" x2="0%" y2="0%" id="a">
<stop stop-color="#0C0E0F" offset="0%"/>
<stop stop-color="#23282B" offset="100%"/>
</linearGradient>
<linearGradient x1="34.539%" y1="7.166%" x2="51.937%" y2="95.118%" id="b">
<stop stop-color="#556FF2" offset="0%"/>
<stop stop-color="#00BFFF" offset="100%"/>
</linearGradient>
<linearGradient x1="94.949%" y1="51.051%" x2="4.943%" y2="44.295%" id="c">
<stop stop-color="#8C66FF" offset="0%"/>
<stop stop-color="#5C26FF" offset="100%"/>
</linearGradient>
<linearGradient x1="50%" y1="95.087%" x2="53.904%" y2="7.859%" id="d">
<stop stop-color="#FF9F19" offset="0%"/>
<stop stop-color="#FC3" offset="100%"/>
</linearGradient>
<linearGradient x1="100%" y1="93.691%" x2="0%" y2="6.309%" id="f">
<stop stop-color="#5C26FF" offset="0%"/>
<stop stop-color="#8C66FF" offset="100%"/>
</linearGradient>
<linearGradient x1="100%" y1="54.325%" x2="0%" y2="45.675%" id="h">
<stop stop-color="#556FF2" offset="0%"/>
<stop stop-color="#00BFFF" offset="100%"/>
</linearGradient>
<linearGradient x1="50%" y1="84.52%" x2="76.653%" y2="17.736%" id="i">
<stop stop-color="#FF9F19" offset="0%"/>
<stop stop-color="#FC3" offset="100%"/>
</linearGradient>
<linearGradient x1="100%" y1="100%" x2="0%" y2="0%" id="j">
<stop stop-color="#0C0E0F" offset="0%"/>
<stop stop-color="#24292B" offset="100%"/>
</linearGradient><linearGradient x1="50%" y1="66.231%" x2="76.653%" y2="34.83%" id="k"><stop stop-color="#FF9F19" offset="0%"/><stop stop-color="#FC3" offset="100%"/></linearGradient><linearGradient x1="100%" y1="68.001%" x2="0%" y2="31.999%" id="l"><stop stop-color="#556FF2" offset="0%"/><stop stop-color="#00BFFF" offset="100%"/></linearGradient><linearGradient x1="100%" y1="54.255%" x2="0%" y2="81.9%" id="m"><stop stop-color="#556FF2" offset="0%"/><stop stop-color="#00BFFF" offset="100%"/></linearGradient><linearGradient x1="50%" y1="95.087%" x2="76.59%" y2="7.859%" id="n"><stop stop-color="#FF9F19" offset="0%"/><stop stop-color="#FC3" offset="100%"/></linearGradient><linearGradient x1="54.261%" y1="55.888%" x2="45.729%" y2="18.029%" id="o"><stop stop-color="#8C66FF" offset="0%"/><stop stop-color="#5C26FF" offset="100%"/></linearGradient><linearGradient x1="50%" y1="95.087%" x2="76.653%" y2="7.859%" id="p"><stop stop-color="#FF9F19" offset="0%"/><stop stop-color="#FC3" offset="100%"/></linearGradient><linearGradient x1="100%" y1="58.252%" x2="0%" y2="41.748%" id="q"><stop stop-color="#5C26FF" offset="0%"/><stop stop-color="#8C66FF" offset="100%"/></linearGradient><linearGradient x1="100%" y1="53.955%" x2="0%" y2="46.045%" id="r"><stop stop-color="#556FF2" offset="0%"/><stop stop-color="#00BFFF" offset="100%"/></linearGradient><linearGradient x1="100%" y1="78.125%" x2="0%" y2="21.875%" id="s"><stop stop-color="#FF9F19" offset="0%"/><stop stop-color="#FC3" offset="100%"/></linearGradient><linearGradient x1="83.988%" y1="55.888%" x2="15.931%" y2="18.029%" id="t"><stop stop-color="#8C66FF" offset="0%"/><stop stop-color="#5C26FF" offset="100%"/></linearGradient><linearGradient x1="50%" y1="95.087%" x2="70.153%" y2="7.859%" id="u"><stop stop-color="#FF9F19" offset="0%"/><stop stop-color="#FC3" offset="100%"/></linearGradient><linearGradient x1="12.193%" y1="7.166%" x2="54.736%" y2="95.118%" id="v"><stop stop-color="#556FF2" offset="0%"/><stop stop-color="#00BFFF" offset="100%"/></linearGradient><linearGradient x1="1.934%" y1="97.811%" x2="100%" y2="2.189%" id="w"><stop stop-color="#8C66FF" offset="0%"/><stop stop-color="#5C26FF" offset="100%"/></linearGradient><linearGradient x1="100%" y1="100%" x2="0%" y2="0%" id="x"><stop stop-color="#556FF2" offset="0%"/><stop stop-color="#00BFFF" offset="100%"/>
</linearGradient>
<path d="M0 0h8v5h36a2 2 0 012 2v34a2 2 0 01-2 2H6a6 6 0 01-6-6V0z" id="e"/>
<path d="M5 0h27a2 2 0 012 2v8H5A5 5 0 115 0z" id="g"/>
</defs>
<g fill="none" fill-rule="evenodd">
<g transform="translate(270 10)">
<rect fill="url(#a)" width="80" height="80" rx="10"/>
<g fill-rule="nonzero">
<path d="M27.273 7.273V0c15.062 0 27.272 12.21 27.272 27.273 0 8.893-4.257 16.793-10.844 21.771l-4.188-5.952a19.96 19.96 0 007.76-15.82c0-10.93-8.769-19.812-19.656-19.996l-.344-.003V0z" fill="url(#b)" transform="translate(12.727 12.727)"/>
<path d="M27.273 47.273a19.88 19.88 0 0010.753-3.133l4.188 5.95-.116.078a27.145 27.145 0 01-14.825 4.377c-9.39 0-17.672-4.745-22.578-11.97l6.157-3.88a19.974 19.974 0 0016.42 8.578z" fill="url(#c)" transform="translate(12.727 12.727)"/>
<path d="M7.02 9.006l5.239 5.053a19.895 19.895 0 00-4.981 12.76l-.005.454c0 3.524.908 6.902 2.609 9.886l-6.157 3.88-.066-.112A27.147 27.147 0 010 27.273 27.172 27.172 0 017.02 9.006z" fill="url(#d)" transform="translate(12.727 12.727)"/>
<path d="M38.181 12.787v7.295a19.9 19.9 0 00-11.932 5.395l-5.239-5.052a27.178 27.178 0 0117.171-7.638z" fill="#FFF" opacity=".3"/>
</g>
</g>
<g transform="translate(650 10)">
<rect fill="url(#a)" width="80" height="80" rx="10"/>
<use fill="url(#f)" xlink:href="#e" transform="translate(16 21)"/>
<use fill="url(#h)" xlink:href="#g" transform="translate(16 16)"/>
<path d="M48 22v14h-9a7 7 0 010-14h9zm-9 4a3 3 0 100 6 3 3 0 000-6z" fill="url(#i)" fill-rule="nonzero" transform="translate(16 16)"/>
</g>
<path d="M16.025 0h67.95c5.575 0 7.593.58 9.63 1.67a11.358 11.358 0 014.725 4.725c1.09 2.037 1.67 4.058 1.67 9.63v67.95c0 5.575-.58 7.593-1.67 9.63a11.358 11.358 0 01-4.725 4.725c-2.038 1.09-4.058 1.67-9.63 1.67h-67.95c-5.575 0-7.592-.58-9.63-1.67a11.358 11.358 0 01-4.725-4.725C.58 91.567 0 89.55 0 83.975v-67.95c0-5.575.58-7.592 1.67-9.63A11.357 11.357 0 016.395 1.67C8.432.58 10.45 0 16.025 0z" fill="url(#j)" transform="translate(450)"/><path d="M62.049 20L80 35 62.049 50V40H32.5a2.5 2.5 0 01-2.5-2.5v-5a2.5 2.5 0 012.5-2.5h29.549V20z" fill="url(#k)" fill-rule="nonzero" transform="translate(450)"/><path d="M51.98 50L70 65 51.98 80V70H22.5a2.5 2.5 0 01-2.5-2.5v-5a2.5 2.5 0 012.5-2.5h29.48V50z" fill="url(#l)" fill-rule="nonzero" transform="rotate(-180 270 65)"/><g opacity=".6"><path d="M8.974 0h22.052c3.12 0 4.252.325 5.393.935a6.36 6.36 0 012.646 2.646c.61 1.14.935 2.272.935 5.393v22.052c0 3.12-.325 4.252-.935 5.393a6.36 6.36 0 01-2.646 2.646c-1.14.61-2.272.935-5.393.935H8.974c-3.12 0-4.252-.325-5.393-.935a6.36 6.36 0 01-2.646-2.646C.325 35.279 0 34.147 0 31.026V8.974c0-3.12.325-4.252.935-5.393A6.36 6.36 0 013.581.935C4.721.325 5.853 0 8.974 0z" fill="url(#a)" transform="translate(0 30)"/><g fill-rule="nonzero"><path fill="url(#m)" d="M2.619 16.462L.053 13.9l2.566-2.568L10.19 3.76l5.765 5.764v5.13L10.19 8.889z" transform="translate(5.296 41.688)"/><path fill="url(#n)" d="M13.406 12.101l2.55-2.577 8.069-8.07L26.59 4.02 15.956 14.654z" transform="translate(5.296 41.688)"/><path fill="url(#o)" transform="rotate(-45 66.044 23.66)" d="M11.26 15.096V3.316h3.628l-.02 11.782z"/><path fill="url(#p)" d="M19.792.129h8.55v8.55z" transform="translate(5.296 41.688)"/></g></g><g opacity=".6" transform="translate(960 30)"><rect width="40" height="40" rx="7" fill="url(#a)"/><path d="M5.455 18.182h29.09v8A3.818 3.818 0 0130.727 30H9.273a3.818 3.818 0 01-3.818-3.818v-8z" fill="url(#q)"/><path d="M9.273 10h21.454a3.818 3.818 0 013.818 3.818v4.364H5.455v-4.364A3.818 3.818 0 019.273 10z" fill="url(#r)"/><path d="M19.116 22.802a.12.12 0 01.025-.014.034.034 0 00.014-.008.06.06 0 01.027-.005c.029 0 .055.008.079.024s.039.037.046.063l.098.31a.076.076 0 01.006.033c0 .026-.008.05-.025.074-.016.024-.035.037-.057.041a.327.327 0 00-.044.01l-.545.055.41.36.032.033a.125.125 0 01.022.071.11.11 0 01-.05.098l-.267.191a.081.081 0 01-.06.022.124.124 0 01-.103-.05l-.022-.037-.218-.491-.219.49-.021.039a.124.124 0 01-.104.049.081.081 0 01-.06-.022l-.267-.19a.11.11 0 01-.05-.099c0-.025.008-.049.022-.07l.033-.034.404-.36-.54-.054a.327.327 0 00-.044-.011.105.105 0 01-.068-.057.106.106 0 01-.008-.09l.098-.311a.116.116 0 01.063-.071.132.132 0 01.09-.011.034.034 0 00.013.008.12.12 0 01.025.014l.469.278-.115-.535-.005-.043c0-.03.012-.057.035-.082a.112.112 0 01.085-.038h.327c.033 0 .061.013.085.038a.119.119 0 01.035.082l-.005.043-.12.535.474-.278zm2.471 3.414c0 .04-.014.075-.043.104a.142.142 0 01-.104.044h-.224a.142.142 0 01-.103-.044.142.142 0 01-.044-.104v-3.005l-.884.67a.138.138 0 01-.092.034.14.14 0 01-.115-.055l-.13-.17a.152.152 0 01-.033-.092c0-.047.02-.085.06-.114l1.167-.895a.294.294 0 01.174-.044h.224c.04 0 .075.015.104.044.029.03.043.064.043.104v3.523zm2.384-1.86c.116-.105.2-.209.25-.31a.864.864 0 00.077-.388.687.687 0 00-.174-.49c-.117-.124-.293-.186-.53-.186-.232 0-.407.06-.523.183-.116.121-.2.286-.251.493a.18.18 0 01-.055.093.13.13 0 01-.087.033h-.25a.115.115 0 01-.085-.036.115.115 0 01-.036-.084 1.2 1.2 0 01.167-.551c.103-.182.251-.331.444-.448.193-.116.418-.174.677-.174.258 0 .479.052.662.155.184.104.323.244.418.42.094.177.141.374.141.592 0 .23-.039.425-.117.587a1.634 1.634 0 01-.4.493l-1.217 1.135h1.669c.04 0 .074.014.104.043.029.03.043.064.043.104v.196c0 .04-.014.075-.043.104a.142.142 0 01-.104.044H22.4a.142.142 0 01-.104-.044.142.142 0 01-.043-.104v-.196c0-.04.008-.074.024-.1a.55.55 0 01.096-.107l1.598-1.457zm2.83 1.571a.98.98 0 00.604-.177c.158-.118.237-.29.237-.515 0-.222-.076-.383-.227-.483-.15-.1-.355-.15-.613-.15h-.453a.142.142 0 01-.104-.044.142.142 0 01-.043-.103v-.197c0-.029.007-.055.022-.079a.635.635 0 01.065-.084l.982-1.059H25.7a.142.142 0 01-.104-.043.142.142 0 01-.043-.104v-.196c0-.04.014-.075.043-.104a.142.142 0 01.104-.044h2.15c.04 0 .074.015.103.044.029.03.043.064.043.104v.196c0 .051-.032.113-.098.186l-.965 1.041c.367.008.663.111.889.311.225.2.338.47.338.808 0 .24-.06.45-.183.63a1.17 1.17 0 01-.49.411 1.618 1.618 0 01-.685.142c-.31 0-.57-.046-.78-.139a1.078 1.078 0 01-.47-.36.885.885 0 01-.163-.472c0-.032.012-.06.036-.084a.115.115 0 01.084-.036h.251c.036 0 .066.012.09.036.024.023.04.05.052.079.047.149.133.267.259.354.125.088.339.131.64.131zm3.775.437a.142.142 0 01-.103-.044.142.142 0 01-.044-.104v-.752h-1.713a.142.142 0 01-.103-.044.142.142 0 01-.044-.104v-.196c0-.025.007-.055.022-.09a.448.448 0 01.054-.095l1.724-2.259c.066-.087.136-.13.213-.13h.218c.04 0 .075.014.104.043.029.03.043.064.043.104v2.28h.47c.04 0 .074.014.103.043.03.03.044.064.044.104v.196c0 .04-.015.075-.044.104a.142.142 0 01-.104.044h-.469v.752c0 .04-.014.075-.043.104a.142.142 0 01-.104.044h-.224zm-.147-2.93l-1.184 1.539h1.184v-1.538z" fill="#FFF" fill-rule="nonzero"/><rect fill="url(#s)" x="9.091" y="15.455" width="7.273" height="5.455" rx="1.273"/></g><g opacity=".8" transform="translate(820 20)"><rect fill="url(#a)" width="60" height="60" rx="10.5"/><g fill-rule="nonzero"><path d="M34.878 13.853l5.244 3.111c.487.29.787.824.787 1.402v6.223c0 .578-.3 1.112-.787 1.401l-5.244 3.111c-.487.29-1.087.29-1.574 0L28.06 25.99a1.627 1.627 0 01-.787-1.401v-6.223c0-.578.3-1.112.787-1.402l5.244-3.11a1.538 1.538 0 011.574 0z" fill="url(#t)" transform="translate(9.545 8.182)"/><path d="M17.15 22.035l5.245 3.111c.487.29.787.824.787 1.402v6.222c0 .579-.3 1.113-.787 1.402l-5.244 3.111c-.487.29-1.087.29-1.575 0l-5.243-3.111a1.627 1.627 0 01-.788-1.402v-6.222c0-.578.3-1.113.788-1.402l5.243-3.111a1.538 1.538 0 011.575 0z" fill="#FFF" opacity=".3"/><path d="M21.242 27.49l5.243 3.11c.488.29.788.824.788 1.402v6.223c0 .578-.3 1.112-.788 1.401l-5.243 3.112c-.487.289-1.088.289-1.575 0l-5.243-3.112a1.627 1.627 0 01-.788-1.401v-6.223c0-.578.3-1.112.788-1.401l5.243-3.111a1.538 1.538 0 011.575 0z" fill="url(#u)" transform="translate(9.545 8.182)"/><path d="M21.242.217l5.243 3.111c.488.29.788.823.788 1.402v6.222c0 .578-.3 1.113-.788 1.402l-5.243 3.111c-.487.29-1.088.29-1.575 0l-5.243-3.111a1.627 1.627 0 01-.788-1.402V4.73c0-.579.3-1.113.788-1.402L19.667.217a1.538 1.538 0 011.575 0z" fill="url(#v)" transform="translate(9.545 8.182)"/></g></g><g opacity=".8" transform="translate(120 20)"><rect fill="url(#a)" width="60" height="60" rx="11.455"/><path fill="url(#w)" d="M25.16 1.818h4.245L6.387 28.482h-4.25z" transform="translate(14 15)"/><path d="M7.273 0a7.273 7.273 0 110 14.545A7.273 7.273 0 017.273 0zm0 3.636a3.636 3.636 0 100 7.273 3.636 3.636 0 000-7.273z" fill="url(#x)" transform="translate(14 15)"/><path d="M24.242 15.758a7.273 7.273 0 110 14.545 7.273 7.273 0 010-14.545zm0 3.636a3.636 3.636 0 100 7.273 3.636 3.636 0 000-7.273z" fill="url(#p)" fill-rule="nonzero" transform="translate(14 15)"/></g></g></svg>