<svg width="26" height="29" viewBox="0 0 26 29" fill="none" xmlns="http://www.w3.org/2000/svg">
<path d="M23.2143 12.6875H21.8214V8.60938C21.8214 3.86289 17.8634 0 13 0C8.13661 0 4.17857 3.86289 4.17857 8.60938V12.6875H2.78571C1.24777 12.6875 0 13.9053 0 15.4062V26.2812C0 27.7822 1.24777 29 2.78571 29H23.2143C24.7522 29 26 27.7822 26 26.2812V15.4062C26 13.9053 24.7522 12.6875 23.2143 12.6875ZM17.1786 12.6875H8.82143V8.60938C8.82143 6.36074 10.696 4.53125 13 4.53125C15.304 4.53125 17.1786 6.36074 17.1786 8.60938V12.6875Z" fill="#444444"/>
</svg>
