<svg width="42" height="42" viewBox="0 0 42 42" fill="none" xmlns="http://www.w3.org/2000/svg">
<path d="M20.9995 6.00004V0.545288C32.296 0.545288 41.4535 9.70279 41.4535 21C41.4535 27.6698 38.2608 33.5948 33.3205 37.3283L30.1795 32.8643C31.9929 31.4638 33.4607 29.6658 34.4697 27.6088C35.4787 25.5517 36.0021 23.2905 35.9995 20.9993C35.9995 12.8018 29.4228 6.14029 21.2575 6.00229L20.9995 6.00004V0.545288V6.00004Z" fill="url(#paint0_linear)"/>
<path d="M20.9994 36C23.8573 36.0059 26.6567 35.1903 29.0642 33.6503L32.2052 38.1128L32.1182 38.1713C28.8084 40.32 24.9455 41.4605 20.9994 41.454C13.9569 41.454 7.74542 37.8953 4.06592 32.4765L8.68367 29.5665C10.0642 31.5537 11.9055 33.177 14.0502 34.2974C16.1949 35.4177 18.579 36.002 20.9987 36H20.9994Z" fill="url(#paint1_linear)"/>
<path d="M5.80995 7.2998L9.7392 11.0896C7.40042 13.7368 6.07666 17.1279 6.00345 20.6596L5.9997 21.0001C5.9997 23.6431 6.6807 26.1766 7.95645 28.4146L3.3387 31.3246L3.2892 31.2406C1.48618 28.1293 0.539327 24.596 0.544947 21.0001C0.537455 15.9379 2.41428 11.0541 5.80995 7.2998V7.2998Z" fill="url(#paint2_linear)"/>
<path opacity="0.3" d="M19.6356 0.590332V6.06158C16.2815 6.36214 13.1277 7.78813 10.6866 10.1078L6.75732 6.31883C10.2323 2.93868 14.7982 0.907674 19.6356 0.590332V0.590332Z" fill="white"/>
<defs>
<linearGradient id="paint0_linear" x1="28.0641" y1="3.18116" x2="38.6795" y2="33.0222" gradientUnits="userSpaceOnUse">
<stop stop-color="#556FF2"/>
<stop offset="1" stop-color="#00BFFF"/>
</linearGradient>
<linearGradient id="paint1_linear" x1="30.7839" y1="35.6352" x2="6.09362" y2="31.2483" gradientUnits="userSpaceOnUse">
<stop stop-color="#8C66FF"/>
<stop offset="1" stop-color="#5C26FF"/>
</linearGradient>
<linearGradient id="paint2_linear" x1="5.14206" y1="30.1442" x2="7.56465" y2="9.42925" gradientUnits="userSpaceOnUse">
<stop stop-color="#FF9F19"/>
<stop offset="1" stop-color="#FFCC33"/>
</linearGradient>
</defs>
</svg>
