<svg width="60" height="60" viewBox="0 0 60 60" fill="none" xmlns="http://www.w3.org/2000/svg">
<path d="M52.5 0H7.5C3.35786 0 0 3.35786 0 7.5V52.5C0 56.6421 3.35786 60 7.5 60H52.5C56.6421 60 60 56.6421 60 52.5V7.5C60 3.35786 56.6421 0 52.5 0Z" fill="url(#paint0_linear)"/>
<path d="M29.9995 15V9.54529C41.296 9.54529 50.4535 18.7028 50.4535 30C50.4535 36.6698 47.2608 42.5948 42.3205 46.3283L39.1795 41.8643C40.9929 40.4638 42.4607 38.6658 43.4697 36.6088C44.4787 34.5517 45.0021 32.2905 44.9995 29.9993C44.9995 21.8018 38.4228 15.1403 30.2575 15.0023L29.9995 15V9.54529V15Z" fill="url(#paint1_linear)"/>
<path d="M29.9994 45C32.8573 45.0059 35.6567 44.1903 38.0642 42.6503L41.2052 47.1128L41.1182 47.1713C37.8084 49.32 33.9455 50.4605 29.9994 50.454C22.9569 50.454 16.7454 46.8953 13.0659 41.4765L17.6837 38.5665C19.0642 40.5537 20.9055 42.177 23.0502 43.2974C25.1949 44.4177 27.579 45.002 29.9987 45H29.9994Z" fill="url(#paint2_linear)"/>
<path d="M14.8099 16.2998L18.7392 20.0896C16.4004 22.7368 15.0767 26.1279 15.0034 29.6596L14.9997 30.0001C14.9997 32.6431 15.6807 35.1766 16.9564 37.4146L12.3387 40.3246L12.2892 40.2406C10.4862 37.1293 9.53933 33.596 9.54495 30.0001C9.53745 24.9379 11.4143 20.0541 14.8099 16.2998V16.2998Z" fill="url(#paint3_linear)"/>
<path opacity="0.3" d="M28.6356 9.59033V15.0616C25.2815 15.3621 22.1277 16.7881 19.6866 19.1078L15.7573 15.3188C19.2323 11.9387 23.7982 9.90767 28.6356 9.59033V9.59033Z" fill="white"/>
<defs>
<linearGradient id="paint0_linear" x1="60" y1="60" x2="0" y2="0" gradientUnits="userSpaceOnUse">
<stop stop-color="#0C0E0F"/>
<stop offset="1" stop-color="#23282B"/>
</linearGradient>
<linearGradient id="paint1_linear" x1="37.0641" y1="12.1812" x2="47.6795" y2="42.0222" gradientUnits="userSpaceOnUse">
<stop stop-color="#556FF2"/>
<stop offset="1" stop-color="#00BFFF"/>
</linearGradient>
<linearGradient id="paint2_linear" x1="39.7839" y1="44.6352" x2="15.0936" y2="40.2483" gradientUnits="userSpaceOnUse">
<stop stop-color="#8C66FF"/>
<stop offset="1" stop-color="#5C26FF"/>
</linearGradient>
<linearGradient id="paint3_linear" x1="14.1421" y1="39.1442" x2="16.5646" y2="18.4293" gradientUnits="userSpaceOnUse">
<stop stop-color="#FF9F19"/>
<stop offset="1" stop-color="#FFCC33"/>
</linearGradient>
</defs>
</svg>
