<svg width="36" height="36" viewBox="0 0 36 36" fill="none" xmlns="http://www.w3.org/2000/svg">
<path d="M0 3.75H6V7.5H33C33.3978 7.5 33.7794 7.65804 34.0607 7.93934C34.342 8.22064 34.5 8.60218 34.5 9V34.5C34.5 34.8978 34.342 35.2794 34.0607 35.5607C33.7794 35.842 33.3978 36 33 36H4.5C3.30653 36 2.16193 35.5259 1.31802 34.682C0.474106 33.8381 0 32.6935 0 31.5L0 3.75Z" fill="url(#paint0_linear)"/>
<path d="M3.75 0H24C24.3978 0 24.7794 0.158035 25.0607 0.43934C25.342 0.720644 25.5 1.10218 25.5 1.5V7.5H3.75C2.75544 7.5 1.80161 7.10491 1.09835 6.40165C0.395088 5.69839 0 4.74456 0 3.75C0 2.75544 0.395088 1.80161 1.09835 1.09835C1.80161 0.395088 2.75544 0 3.75 0V0Z" fill="url(#paint1_linear)"/>
<path d="M36 16.5V27H29.25C27.8576 27 26.5223 26.4469 25.5377 25.4623C24.5531 24.4777 24 23.1424 24 21.75C24 20.3576 24.5531 19.0223 25.5377 18.0377C26.5223 17.0531 27.8576 16.5 29.25 16.5H36ZM29.25 19.5C28.6533 19.5 28.081 19.7371 27.659 20.159C27.2371 20.581 27 21.1533 27 21.75C27 22.3467 27.2371 22.919 27.659 23.341C28.081 23.7629 28.6533 24 29.25 24C29.8467 24 30.419 23.7629 30.841 23.341C31.2629 22.919 31.5 22.3467 31.5 21.75C31.5 21.1533 31.2629 20.581 30.841 20.159C30.419 19.7371 29.8467 19.5 29.25 19.5Z" fill="url(#paint2_linear)"/>
<defs>
<linearGradient id="paint0_linear" x1="34.5" y1="33.9653" x2="2.03006" y2="3.61296" gradientUnits="userSpaceOnUse">
<stop stop-color="#5C26FF"/>
<stop offset="1" stop-color="#8C66FF"/>
</linearGradient>
<linearGradient id="paint1_linear" x1="25.5" y1="4.07438" x2="1.85442" y2="-2.87979" gradientUnits="userSpaceOnUse">
<stop stop-color="#556FF2"/>
<stop offset="1" stop-color="#00BFFF"/>
</linearGradient>
<linearGradient id="paint2_linear" x1="30" y1="25.3746" x2="32.5302" y2="18.129" gradientUnits="userSpaceOnUse">
<stop stop-color="#FF9F19"/>
<stop offset="1" stop-color="#FFCC33"/>
</linearGradient>
</defs>
</svg>
